<svg aria-hidden="true" style="position: absolute; width: 0; height: 0; overflow: hidden;" version="1.1" xmlns="http://www.w3.org/2000/svg" xmlns:xlink="http://www.w3.org/1999/xlink">
<defs>
<symbol id="icon-calculator" viewBox="0 0 32 32">
<path fill="#52555f" style="fill: var(--color1, #52555f)" d="M27.25 0h-22.5c-1.551 0-2.813 1.262-2.813 2.813v26.375c0 1.551 1.262 2.812 2.813 2.812h22.5c1.551 0 2.813-1.262 2.813-2.812v-26.375c0-1.551-1.262-2.813-2.813-2.813zM28.188 29.188c0 0.517-0.421 0.937-0.938 0.937h-22.5c-0.517 0-0.938-0.42-0.938-0.937v-26.375c0-0.517 0.421-0.938 0.938-0.938h22.5c0.517 0 0.938 0.421 0.938 0.938v26.375z"></path>
<path fill="#52555f" style="fill: var(--color1, #52555f)" d="M25.375 3.75h-18.75c-0.518 0-0.938 0.42-0.938 0.938v7.625c0 0.518 0.42 0.938 0.938 0.938h18.75c0.518 0 0.937-0.42 0.937-0.938v-7.625c0-0.518-0.42-0.938-0.937-0.938zM24.437 11.375h-16.875v-5.75h16.875v5.75z"></path>
<path fill="#52555f" style="fill: var(--color1, #52555f)" d="M10.375 15.125h-3.75c-0.518 0-0.938 0.42-0.938 0.938v3.75c0 0.518 0.42 0.938 0.938 0.938h3.75c0.518 0 0.938-0.42 0.938-0.938v-3.75c0-0.518-0.42-0.938-0.938-0.938zM9.438 18.875h-1.875v-1.875h1.875v1.875z"></path>
<path fill="#52555f" style="fill: var(--color1, #52555f)" d="M10.375 22.625h-3.75c-0.518 0-0.938 0.42-0.938 0.938v3.75c0 0.518 0.42 0.937 0.938 0.937h3.75c0.518 0 0.938-0.42 0.938-0.937v-3.75c0-0.518-0.42-0.938-0.938-0.938zM9.438 26.375h-1.875v-1.875h1.875v1.875z"></path>
<path fill="#52555f" style="fill: var(--color1, #52555f)" d="M17.875 15.125h-3.75c-0.518 0-0.938 0.42-0.938 0.938v3.75c0 0.518 0.42 0.938 0.938 0.938h3.75c0.518 0 0.937-0.42 0.937-0.938v-3.75c0-0.518-0.42-0.938-0.937-0.938zM16.937 18.875h-1.875v-1.875h1.875v1.875z"></path>
<path fill="#52555f" style="fill: var(--color1, #52555f)" d="M17.875 22.625h-3.75c-0.518 0-0.938 0.42-0.938 0.938v3.75c0 0.518 0.42 0.937 0.938 0.937h3.75c0.518 0 0.937-0.42 0.937-0.937v-3.75c0-0.518-0.42-0.938-0.937-0.938zM16.937 26.375h-1.875v-1.875h1.875v1.875z"></path>
<path fill="#52555f" style="fill: var(--color1, #52555f)" d="M25.375 15.125h-3.75c-0.518 0-0.937 0.42-0.937 0.938v11.25c0 0.518 0.42 0.937 0.937 0.937h3.75c0.518 0 0.937-0.42 0.937-0.937v-11.25c0-0.518-0.42-0.938-0.937-0.938zM24.437 26.375h-1.875v-9.375h1.875v9.375z"></path>
</symbol>
<symbol id="icon-delete" viewBox="0 0 32 32">
<path fill="#52555f" style="fill: var(--color1, #52555f)" d="M28.992 7.153l-0.707-2.118c-0.269-0.807-1.021-1.349-1.871-1.349h-5.938v-1.933c0-0.966-0.786-1.753-1.752-1.753h-5.438c-0.966 0-1.752 0.786-1.752 1.753v1.933h-5.938c-0.85 0-1.603 0.542-1.872 1.349l-0.707 2.118c-0.161 0.482-0.079 1.016 0.218 1.428s0.778 0.659 1.286 0.659h0.739l1.625 20.1c0.121 1.491 1.386 2.66 2.882 2.66h12.804c1.495 0 2.761-1.169 2.882-2.66l1.625-20.1h0.409c0.508 0 0.989-0.246 1.286-0.658s0.379-0.947 0.218-1.429zM13.41 1.875h5.191v1.811h-5.191v-1.811zM23.585 29.189c-0.043 0.525-0.487 0.936-1.013 0.936h-12.804c-0.525 0-0.97-0.411-1.013-0.936l-1.614-19.949h18.056l-1.613 19.949zM4.924 7.365l0.579-1.737c0.013-0.040 0.051-0.067 0.093-0.067h20.818c0.042 0 0.079 0.027 0.093 0.067l0.579 1.737h-22.162z"></path>
<path fill="#52555f" style="fill: var(--color1, #52555f)" d="M20.595 29.122c0.017 0.001 0.033 0.001 0.050 0.001 0.495 0 0.909-0.388 0.935-0.889l0.88-16.9c0.027-0.517-0.371-0.958-0.887-0.985-0.518-0.028-0.958 0.37-0.985 0.887l-0.88 16.9c-0.027 0.517 0.37 0.958 0.887 0.985z"></path>
<path fill="#52555f" style="fill: var(--color1, #52555f)" d="M10.473 28.237c0.027 0.5 0.441 0.886 0.935 0.886 0.017 0 0.035-0.001 0.052-0.001 0.517-0.028 0.913-0.47 0.885-0.987l-0.922-16.9c-0.028-0.517-0.47-0.913-0.987-0.885s-0.913 0.47-0.885 0.987l0.922 16.9z"></path>
<path fill="#52555f" style="fill: var(--color1, #52555f)" d="M16.016 29.123c0.518 0 0.938-0.42 0.938-0.937v-16.9c0-0.518-0.42-0.938-0.938-0.938s-0.938 0.42-0.938 0.938v16.9c0 0.518 0.42 0.937 0.938 0.937z"></path>
</symbol>
<symbol id="icon-calendar" viewBox="0 0 32 32">
<path fill="#52555f" style="fill: var(--color1, #52555f)" d="M27.961 3.307h-2.099v-0.514c0-0.518-0.42-0.938-0.937-0.938s-0.937 0.42-0.937 0.938v0.514h-2.587v-0.514c0-0.518-0.42-0.938-0.938-0.938s-0.937 0.42-0.937 0.938v0.514h-2.587v-0.514c0-0.518-0.42-0.938-0.937-0.938s-0.938 0.42-0.938 0.938v0.514h-2.587v-0.514c0-0.518-0.42-0.938-0.938-0.938s-0.938 0.42-0.938 0.938v0.514h-2.587v-0.514c0-0.518-0.42-0.938-0.938-0.938s-0.938 0.42-0.938 0.938v0.514h-2.099c-2.227 0-4.039 1.812-4.039 4.039v18.758c0 2.227 1.812 4.039 4.039 4.039h23.921c2.227 0 4.039-1.812 4.039-4.039v-18.758c0-2.227-1.812-4.039-4.039-4.039zM30.125 26.105c0 1.193-0.971 2.164-2.164 2.164h-23.921c-1.193 0-2.164-0.971-2.164-2.164v-15.333h28.25v15.333zM30.125 8.897h-28.25v-1.55c0-1.193 0.971-2.164 2.164-2.164h2.099v0.362c0 0.518 0.42 0.938 0.938 0.938s0.938-0.42 0.938-0.938v-0.362h2.587v0.362c0 0.518 0.42 0.938 0.938 0.938s0.938-0.42 0.938-0.938v-0.362h2.587v0.362c0 0.518 0.42 0.938 0.938 0.938s0.937-0.42 0.937-0.938v-0.362h2.587v0.362c0 0.518 0.42 0.938 0.937 0.938s0.938-0.42 0.938-0.938v-0.362h2.587v0.362c0 0.518 0.42 0.938 0.937 0.938s0.937-0.42 0.937-0.938v-0.362h2.099c1.193 0 2.164 0.971 2.164 2.164v1.55z"></path>
<path fill="#52555f" style="fill: var(--color1, #52555f)" d="M10.451 12.771h-3.699c-0.518 0-0.938 0.42-0.938 0.938v3.828c0 0.518 0.42 0.937 0.938 0.937h3.699c0.518 0 0.938-0.42 0.938-0.937v-3.828c0-0.518-0.42-0.938-0.938-0.938zM9.513 16.598h-1.824v-1.952h1.824v1.952z"></path>
<path fill="#52555f" style="fill: var(--color1, #52555f)" d="M17.85 12.771h-3.699c-0.518 0-0.938 0.42-0.938 0.938v3.828c0 0.518 0.42 0.937 0.938 0.937h3.699c0.518 0 0.937-0.42 0.937-0.937v-3.828c0-0.518-0.42-0.938-0.937-0.938zM16.912 16.598h-1.824v-1.952h1.824v1.952z"></path>
<path fill="#52555f" style="fill: var(--color1, #52555f)" d="M25.248 12.771h-3.699c-0.518 0-0.937 0.42-0.937 0.938v3.828c0 0.518 0.42 0.937 0.937 0.937h3.699c0.518 0 0.937-0.42 0.937-0.937v-3.828c0-0.518-0.42-0.938-0.937-0.938zM24.311 16.598h-1.824v-1.952h1.824v1.952z"></path>
<path fill="#52555f" style="fill: var(--color1, #52555f)" d="M10.451 20.041h-3.699c-0.518 0-0.938 0.42-0.938 0.938v3.827c0 0.518 0.42 0.938 0.938 0.938h3.699c0.518 0 0.938-0.42 0.938-0.938v-3.827c0-0.518-0.42-0.938-0.938-0.938zM9.513 23.868h-1.824v-1.952h1.824v1.952z"></path>
<path fill="#52555f" style="fill: var(--color1, #52555f)" d="M17.85 20.041h-3.699c-0.518 0-0.938 0.42-0.938 0.938v3.827c0 0.518 0.42 0.938 0.938 0.938h3.699c0.518 0 0.937-0.42 0.937-0.938v-3.827c0-0.518-0.42-0.938-0.937-0.938zM16.912 23.868h-1.824v-1.952h1.824v1.952z"></path>
<path fill="#52555f" style="fill: var(--color1, #52555f)" d="M25.248 20.041h-3.699c-0.518 0-0.937 0.42-0.937 0.938v3.827c0 0.518 0.42 0.938 0.937 0.938h3.699c0.518 0 0.937-0.42 0.937-0.938v-3.827c0-0.518-0.42-0.938-0.937-0.938zM24.311 23.868h-1.824v-1.952h1.824v1.952z"></path>
</symbol>
<symbol id="icon-statistic" viewBox="0 0 32 32">
<path fill="#52555f" style="fill: var(--color1, #52555f)" d="M6.667 12.267h4v13.067h-4v-13.067zM14.133 6.667h3.733v18.667h-3.733v-18.667zM21.6 17.333h3.733v8h-3.733v-8z"></path>
</symbol>
<symbol id="icon-logo" viewBox="0 0 93 32">
<path fill="#fb7c2f" style="fill: var(--color2, #fb7c2f)" d="M14.452 5.161h17.548c4.561 0 8.258 3.697 8.258 8.258v10.323c0 4.561-3.697 8.258-8.258 8.258h-17.548c-4.561 0-8.258-3.697-8.258-8.258v-10.323c0-4.561 3.697-8.258 8.258-8.258z"></path>
<path fill="#fb7c2f" style="fill: var(--color2, #fb7c2f)" opacity="0.2" d="M8.258 0h17.548c4.561 0 8.258 3.697 8.258 8.258v10.323c0 4.561-3.697 8.258-8.258 8.258h-17.548c-4.561 0-8.258-3.697-8.258-8.258v-10.323c0-4.561 3.697-8.258 8.258-8.258z"></path>
<path fill="#000" style="fill: var(--color3, #000)" d="M23.88 21.234l1.326-1.455 2.856 4.994h3.834l-4.534-7.483 4.534-5.934h-3.999l-2.893 4.212-1.125 1.704v-5.916h-3.234v13.417h3.235v-3.539zM38.929 23.878c0.086 0.393 0.185 0.692 0.295 0.894h3.105v-0.157c-0.27-0.485-0.411-1.185-0.423-2.101v-4.414c-0.019-1.082-0.396-1.932-1.133-2.553-0.738-0.62-1.742-0.931-3.014-0.931s-2.319 0.301-3.142 0.903c-0.817 0.602-1.225 1.385-1.225 2.35h3.105c0-0.726 0.369-1.088 1.107-1.088 0.792 0 1.188 0.458 1.188 1.373v0.526h-0.958c-1.524 0-2.685 0.276-3.484 0.829-0.799 0.552-1.197 1.37-1.197 2.451 0 0.861 0.328 1.576 0.986 2.147 0.658 0.566 1.455 0.849 2.395 0.849 1.027 0 1.825-0.359 2.397-1.079zM38.237 22.496c-0.252 0.165-0.571 0.249-0.958 0.249-0.295 0-0.537-0.086-0.728-0.258-0.176-0.165-0.286-0.4-0.286-0.66 0-0.011 0-0.022 0.001-0.033l-0 0.002c0-0.97 0.541-1.455 1.622-1.455h0.903v1.595c-0.11 0.209-0.295 0.396-0.553 0.562zM52.89 19.861c0 1.548-0.351 2.786-1.051 3.714-0.694 0.921-1.634 1.382-2.82 1.382-0.915 0-1.667-0.335-2.258-1.004v4.653h-3.105v-13.804h2.903l0.093 0.922c0.595-0.738 1.378-1.107 2.349-1.107 1.228 0 2.183 0.454 2.866 1.365 0.681 0.902 1.023 2.147 1.023 3.732v0.148zM49.784 19.667c0-1.769-0.516-2.653-1.548-2.653-0.737 0-1.228 0.263-1.474 0.792v3.926c0.27 0.553 0.768 0.83 1.494 0.83 0.989 0 1.499-0.855 1.529-2.562v-0.332zM58.575 24.957c1.119 0 2.007-0.421 2.663-1.262l0.093 1.078h2.911v-9.972h-3.123v6.996c-0.3 0.51-0.807 0.764-1.521 0.764-0.829 0-1.244-0.426-1.244-1.28v-6.478h-3.105v6.46c0 1.191 0.279 2.107 0.838 2.746 0.565 0.633 1.394 0.95 2.488 0.95zM71.173 21.971c0-0.264-0.138-0.475-0.415-0.636-0.277-0.159-0.801-0.325-1.575-0.498-0.774-0.171-1.414-0.396-1.917-0.672-0.504-0.283-0.888-0.625-1.152-1.023-0.249-0.375-0.397-0.836-0.397-1.331 0-0.015 0-0.029 0-0.044l-0 0.002c0-0.916 0.378-1.668 1.133-2.259 0.635-0.501 1.434-0.791 2.398-0.871v-2.263h1.48v2.294c0.901 0.109 1.654 0.39 2.26 0.841 0.798 0.597 1.197 1.379 1.197 2.35h-3.114c0-0.799-0.421-1.197-1.262-1.197-0.012-0-0.026-0.001-0.041-0.001-0.297 0-0.569 0.104-0.782 0.278l0.002-0.002c-0.202 0.153-0.331 0.393-0.331 0.663 0 0.004 0 0.007 0 0.011v-0.001c0 0.276 0.134 0.501 0.406 0.672 0.269 0.172 0.7 0.314 1.29 0.424 0.608 0.109 1.135 0.246 1.645 0.42l-0.079-0.023c1.499 0.516 2.248 1.441 2.248 2.774 0 0.908-0.405 1.65-1.216 2.22-0.606 0.43-1.346 0.699-2.222 0.805v2.273h-1.48v-2.244c-0.631-0.050-1.214-0.206-1.748-0.451l0.032 0.013c-0.67-0.307-1.192-0.725-1.567-1.253-0.375-0.527-0.562-1.084-0.562-1.668h2.903c0.011 0.461 0.165 0.799 0.46 1.015 0.295 0.209 0.673 0.313 1.133 0.313 0.423 0 0.74-0.086 0.95-0.258 0.197-0.151 0.322-0.387 0.322-0.652 0-0.007-0-0.015-0-0.022l0 0.001zM80.278 14.802v-2.479h-3.105v2.479h-1.272v2.156h1.272v4.949c0 1.026 0.255 1.791 0.764 2.295 0.511 0.504 1.301 0.756 2.369 0.756 0.609 0 1.192-0.090 1.751-0.268v-2.219c-0.213 0.035-0.458 0.055-0.707 0.055-0.024 0-0.047-0-0.071-0.001l0.004 0c-0.398 0-0.666-0.074-0.801-0.221-0.135-0.148-0.203-0.409-0.203-0.785v-4.561h1.641v-2.157h-1.641zM89.797 24.773c-0.11-0.203-0.209-0.502-0.294-0.895-0.572 0.719-1.37 1.079-2.396 1.079-0.939 0-1.739-0.283-2.396-0.849-0.658-0.571-0.987-1.286-0.987-2.147 0-1.081 0.399-1.898 1.197-2.451 0.8-0.553 1.961-0.83 3.484-0.83h0.959v-0.525c0-0.915-0.396-1.373-1.189-1.373-0.737 0-1.106 0.362-1.106 1.088h-3.105c0-0.965 0.408-1.749 1.225-2.35 0.823-0.602 1.87-0.903 3.142-0.903s2.276 0.31 3.014 0.931c0.736 0.62 1.115 1.471 1.132 2.553v4.414c0.012 0.916 0.155 1.615 0.424 2.101v0.157h-3.105zM87.853 22.745c0.387 0 0.706-0.083 0.958-0.248 0.258-0.167 0.443-0.354 0.553-0.563v-1.595h-0.903c-1.081 0-1.622 0.485-1.622 1.455 0 0.283 0.095 0.514 0.285 0.692 0.191 0.172 0.434 0.258 0.729 0.258z"></path>
</symbol>
<symbol id="icon-logout" viewBox="0 0 16 16">
fill="none" xmlns="http://www.w3.org/2000/svg">
<g clip-path="url(#clip0_14_1485)">
<path d="M9.99998 14H1.99998V1.99998H9.99998V2.99998H12V0H0V16H12V13H10V14H9.99998Z" fill="#CBCCD0"/>
<path d="M12.293 4.29297L10.8789 5.70702L12.1719 6.99998H7V8.99999H12.1719L10.8789 10.293L12.293 11.707L16 7.99997L12.293 4.29297Z" fill="#CBCCD0"/>
</g>
<defs>
<clipPath id="clip0_14_1485">
<rect width="16" height="16" fill="white"/>
</clipPath>
</defs>
</symbol>
<symbol id="icon-user" viewBox="0 0 32 32">
<circle cx="16" cy="16" r="16" fill="#F5F6FA"/>
<path d="M19.2695 11.4688V17.0879C19.2695 18.0215 18.9766 18.7598 18.3906 19.3027C17.8086 19.8457 17.0117 20.1172 16 20.1172C15.0039 20.1172 14.2129 19.8535 13.627 19.3262C13.041 18.7988 12.7422 18.0742 12.7305 17.1523V11.4688H14.4883V17.0996C14.4883 17.6582 14.6211 18.0664 14.8867 18.3242C15.1562 18.5781 15.5273 18.7051 16 18.7051C16.9883 18.7051 17.4902 18.1855 17.5059 17.1465V11.4688H19.2695Z" fill="#52555F"/>
</symbol>
<symbol id="icon-close" viewbox="0 0 14 14">
<path d="M1 1L13 13" stroke="#52555F" stroke-width="2"  fill="#F5F6FA"/>
<path d="M1 13L13 0.999999" stroke="#52555F" stroke-width="2"  fill="#F5F6FA"/>
</symbol>
<symbol id="icon-kapusta" viewBox="0 0 30 32">
<path fill="#dfe2eb" style="fill: var(--color1, #dfe2eb)" d="M14.976 32c-1.429 0-2.831-0.309-4.196-0.927-1.574-0.713-3.086-1.589-4.494-2.602-0.062-0.044-0.12-0.091-0.174-0.141l-1.514 1.219c-0.105 0.085-0.252 0.094-0.367 0.024-0.052-0.032-1.298-0.802-2.352-2.033-1.058-1.235-1.522-2.448-1.541-2.499-0.042-0.111-0.019-0.236 0.060-0.325l0.931-1.053c0.023-0.026 0.049-0.047 0.077-0.063-0.476-0.926-1.114-2.65-1.345-5.488-0.204-2.513 0.114-4.574 0.945-6.125 0.044-0.083 0.11-0.219 0.181-0.366 0.122-0.251 0.248-0.511 0.334-0.653 0.085-0.14 0.179-0.301 0.282-0.48 0.801-1.387 2.292-3.967 5.698-5.934 2.887-1.667 4.323-1.84 5.591-1.993 0.754-0.091 1.405-0.17 2.281-0.562 2.229-0.998 2.675-1.815 2.679-1.823 0.043-0.081 0.119-0.143 0.208-0.165s0.184-0.008 0.26 0.044c0.234 0.162 1.399 1.009 1.412 1.828 0.006 0.397-0.131 0.669-0.232 0.867-0.103 0.203-0.099 0.208-0.056 0.266 0.047 0.062 0.132 0.096 0.267 0.147 0.322 0.121 0.808 0.304 0.831 1.244 0.018 0.749-0.377 1.167-0.698 1.47 0.635 0.317 2.264 1.183 3.557 2.316 0.835 0.732 1.489 1.588 1.892 2.177 0.307 0.449 0.492 0.746 0.597 0.949 0.412-0.223 0.692-0.319 0.909-0.394 0.255-0.087 0.396-0.136 0.617-0.341 0.735-0.682 1.935-0.146 2.080-0.045 0.082 0.057 0.135 0.146 0.146 0.245 0.020 0.183-0.084 0.297-0.275 0.503-0.316 0.342-0.974 1.055-1.29 2.264-0.283 1.084-0.224 2.343-0.172 3.453 0.033 0.701 0.064 1.364 0.001 1.887-0.206 1.712-0.636 5.274-3.261 8.201-1.255 1.4-2.831 2.623-4.461 3.481-0.028 0.022-0.060 0.038-0.093 0.049-0.402 0.208-0.807 0.393-1.211 0.553-1.385 0.549-2.755 0.824-4.102 0.824zM13.221 31.18c2.388 0.448 4.714-0.089 6.74-1.114 0.14-0.286 0.547-1.244 0.517-2.693-0.035-1.707-0.331-2.246-0.334-2.251-0.086-0.151-0.037-0.347 0.112-0.436s0.341-0.046 0.433 0.101c0.040 0.063 0.389 0.672 0.428 2.572 0.020 0.943-0.128 1.696-0.288 2.227 1.376-0.823 2.583-1.856 3.538-2.921 0.496-0.553 0.909-1.131 1.255-1.716-0.117-0.286-0.38-1.113-0.237-2.502 0.167-1.617 0.228-2.5 0.228-2.508 0.012-0.176 0.167-0.308 0.341-0.297 0.176 0.012 0.309 0.165 0.297 0.341-0.001 0.009-0.063 0.9-0.23 2.53-0.073 0.712-0.029 1.253 0.038 1.626 1.022-2.092 1.271-4.156 1.411-5.324 0.057-0.47 0.027-1.107-0.005-1.78-0.054-1.157-0.116-2.468 0.192-3.645 0.329-1.259 0.977-2.031 1.352-2.442-0.298-0.078-0.718-0.119-0.96 0.107-0.32 0.297-0.563 0.38-0.844 0.477-0.266 0.091-0.596 0.204-1.172 0.56-0.531 0.329-0.544 0.759-0.52 1.435 0.016 0.447 0.033 0.954-0.228 1.402-0.456 0.783-1.012 0.603-1.379 0.485-0.199-0.064-0.372-0.12-0.552-0.078-0.017 0.138 0.101 0.526 0.189 0.814 0.202 0.662 0.478 1.569 0.328 2.484-0.084 0.511-0.237 0.824-0.482 0.984-0.286 0.187-0.591 0.109-0.836 0.046-0.322-0.083-0.384-0.075-0.477 0.059-0.354 0.512-0.452 0.98-0.589 1.627-0.058 0.273-0.123 0.582-0.216 0.93-0.145 0.543-0.424 0.924-0.829 1.13-0.615 0.313-1.502 0.227-2.788-0.271-1.085-0.42-2.072-0.517-2.709-0.524-0.003 0-0.007 0-0.010 0-0.278 0-0.529 0.13-0.804 0.333-1.845 1.771-3.878 2.77-5.88 2.861-0.387 0.017-0.795 0.003-1.207-0.035-0.45 0.113-0.721 0.461-0.832 0.794-0.138 0.414-0.092 0.995 0.449 1.385 1.374 0.989 2.849 1.844 4.384 2.539 0.464 0.21 0.929 0.378 1.392 0.507 0.204-0.154 1.149-0.904 2.020-2.198-0.067-0.153-0.461-1.076-0.508-1.895-0.024-0.408-0.037-0.933 0.031-1.115l0.598 0.225c0 0 0.004-0.007 0.008-0.026-0.002 0.007-0.040 0.188 0 0.879 0.025 0.429 0.169 0.913 0.29 1.252 0.972-1.686 1.115-2.287 1.116-2.293 0.038-0.171 0.208-0.28 0.379-0.244s0.281 0.203 0.247 0.375c-0.014 0.070-0.169 0.734-1.267 2.62-0.745 1.279-1.611 2.15-2.128 2.604zM1.009 24.988c0.163 0.366 0.599 1.252 1.355 2.134s1.637 1.525 2.014 1.781l1.196-0.963c-0.438-0.337-1.141-0.884-1.59-1.27-1.186-1.020-2.041-2.194-2.076-2.244-0.015-0.020-0.027-0.042-0.036-0.064-0.037-0.049-0.083-0.114-0.137-0.195l-0.725 0.821zM3.136 24.923c0.337 0.382 0.774 0.84 1.265 1.262 0.3 0.258 0.728 0.599 1.107 0.895-0.014-0.235 0.017-0.477 0.097-0.716 0.093-0.282 0.244-0.526 0.436-0.724-1.101-0.185-2.16-0.482-2.904-0.718zM2.397 23.995c0.438 0.16 2.614 0.928 4.616 1.13 0.125-0.023 0.255-0.033 0.387-0.031 0.618 0.011 1.208-0.033 1.754-0.132 2.004-0.367 3.31-1.465 4.091-2.122 0.137-0.116 0.261-0.219 0.371-0.305 0.035-0.027 0.070-0.054 0.105-0.081 0.552-0.534 1.088-1.141 1.601-1.818 2.028-2.677 1.902-3.957 1.842-4.572l-0.009-0.089c-0.014-0.159-0.103-0.447-0.198-0.752-0.245-0.793-0.582-1.878-0.264-2.679 0.293-0.739 1.040-0.806 1.761-0.87 0.518-0.046 1.053-0.094 1.47-0.371 0.894-0.594 0.444-2.122 0.036-2.931-0.161-0.32-0.359-0.56-0.534-0.772-0.3-0.363-0.61-0.739-0.468-1.306 0.091-0.362 0.341-0.596 0.583-0.822 0.307-0.287 0.573-0.535 0.56-1.048-0.012-0.508-0.156-0.562-0.416-0.66-0.175-0.066-0.392-0.147-0.553-0.362-0.286-0.381-0.123-0.704-0.003-0.94 0.086-0.169 0.167-0.329 0.163-0.567-0.004-0.3-0.468-0.786-0.885-1.123-0.325 0.381-1.084 1.056-2.774 1.813-0.965 0.432-1.694 0.52-2.465 0.613-1.207 0.146-2.574 0.311-5.348 1.912-3.258 1.881-4.639 4.271-5.464 5.7-0.106 0.184-0.202 0.349-0.29 0.493-0.071 0.115-0.2 0.383-0.304 0.598-0.076 0.156-0.146 0.3-0.193 0.389-0.715 1.336-1.019 3.101-0.905 5.254 0.479-1.613 1.456-4.012 3.39-6.241 3.242-3.737 9.542-5.776 9.809-5.861 0.169-0.053 0.348 0.040 0.401 0.208s-0.039 0.348-0.207 0.402c-0.061 0.019-5.787 1.874-9.036 5.149 0.63 0.208 2.091 0.623 3.108 0.391 0.418-0.096 0.779-0.186 1.098-0.266 0.789-0.198 1.359-0.342 2.030-0.368 0.004-0 0.009-0 0.013-0 0.171 0 0.313 0.135 0.319 0.308 0.007 0.177-0.13 0.325-0.307 0.332-0.576 0.023-1.095 0.147-1.792 0.322l0.623 0.598c0.127 0.123 0.132 0.325 0.009 0.453s-0.325 0.132-0.452 0.009l-0.914-0.878c-0.153 0.037-0.314 0.075-0.485 0.114-1.391 0.317-3.349-0.363-3.727-0.502-0.003 0.003-0.005 0.006-0.008 0.009-1.038 1.196-1.791 2.455-2.333 3.604 0.852-0.464 2.244-1.063 3.129-0.621 0.588 0.294 1.036 0.822 1.469 1.334 0.473 0.559 0.92 1.087 1.506 1.285 0.167 0.057 0.257 0.238 0.2 0.406s-0.238 0.257-0.405 0.201c-0.754-0.255-1.28-0.877-1.789-1.478-0.185-0.218-0.365-0.431-0.551-0.621-0.134 0.416-0.358 1.202-0.365 1.844-0.010 0.914 0.446 2.209 0.45 2.222 0.059 0.167-0.028 0.35-0.194 0.409s-0.349-0.027-0.408-0.194c-0.020-0.057-0.499-1.414-0.487-2.444 0.010-0.904 0.377-1.994 0.479-2.282-0.062-0.040-0.126-0.077-0.191-0.11-0.798-0.398-2.63 0.623-3.209 1.013-0.022 0.015-0.045 0.026-0.069 0.035-0.722 1.822-0.897 3.172-0.9 3.196-0 0.003-0.001 0.006-0.001 0.009 0.441 2.897 1.322 4.193 1.53 4.464zM15.055 21.975c0.691 0.017 1.712 0.133 2.829 0.565 1.075 0.417 1.838 0.517 2.268 0.298 0.24-0.122 0.403-0.359 0.501-0.724 0.089-0.331 0.149-0.619 0.208-0.897 0.141-0.666 0.262-1.241 0.689-1.859 0.36-0.522 0.862-0.392 1.162-0.315 0.13 0.033 0.277 0.071 0.327 0.038 0.021-0.013 0.127-0.103 0.201-0.551 0.125-0.768-0.115-1.558-0.309-2.193-0.18-0.589-0.309-1.015-0.132-1.333 0.055-0.098 0.164-0.227 0.375-0.282 0.368-0.097 0.678 0.003 0.928 0.084 0.35 0.113 0.433 0.14 0.63-0.198 0.168-0.288 0.155-0.662 0.141-1.057-0.021-0.609-0.047-1.356 0.663-1.893-0.232-0.421-1.077-1.857-2.359-2.982-1.349-1.184-3.14-2.088-3.574-2.3-0.011 0.024-0.019 0.048-0.025 0.073-0.058 0.233 0.035 0.372 0.341 0.743 0.187 0.226 0.419 0.508 0.612 0.892 0.623 1.239 0.931 2.965-0.254 3.752-0.553 0.367-1.198 0.424-1.767 0.475-0.687 0.061-1.083 0.113-1.224 0.469-0.234 0.591 0.063 1.552 0.28 2.254 0.109 0.353 0.204 0.658 0.224 0.884l0.008 0.084c0.069 0.696 0.211 2.145-1.968 5.022-0.253 0.334-0.512 0.651-0.775 0.952z"></path>
</symbol>
<symbol id="icon-decore" viewBox="0 0 41 32">
<path fill="#dfe2eb" style="fill: var(--color1, #dfe2eb)" d="M9.387 24.338c-0.896 0-1.774-0.194-2.63-0.581-0.987-0.447-1.934-0.996-2.817-1.631-0.039-0.028-0.075-0.057-0.109-0.088l-0.949 0.764c-0.066 0.053-0.158 0.059-0.23 0.015-0.033-0.020-0.813-0.503-1.474-1.274-0.663-0.774-0.954-1.534-0.966-1.566-0.026-0.070-0.012-0.148 0.037-0.204l0.583-0.66c0.014-0.016 0.031-0.029 0.048-0.040-0.298-0.581-0.699-1.661-0.843-3.44-0.128-1.575 0.072-2.867 0.592-3.839 0.028-0.052 0.069-0.137 0.114-0.229 0.076-0.157 0.155-0.32 0.21-0.409 0.054-0.088 0.112-0.189 0.177-0.301 0.502-0.869 1.437-2.487 3.571-3.719 1.809-1.045 2.71-1.153 3.504-1.249 0.473-0.057 0.88-0.106 1.43-0.352 1.397-0.625 1.676-1.137 1.679-1.142 0.027-0.051 0.075-0.090 0.131-0.104s0.116-0.005 0.163 0.028c0.146 0.101 0.877 0.632 0.885 1.146 0.004 0.249-0.082 0.419-0.145 0.543-0.065 0.127-0.062 0.13-0.035 0.167 0.029 0.039 0.083 0.060 0.167 0.092 0.202 0.076 0.507 0.19 0.521 0.78 0.011 0.469-0.236 0.731-0.438 0.922 0.398 0.199 1.419 0.741 2.229 1.452 0.523 0.459 0.934 0.996 1.186 1.365 0.192 0.282 0.308 0.467 0.374 0.595 0.258-0.14 0.433-0.2 0.57-0.247 0.16-0.055 0.248-0.085 0.387-0.214 0.46-0.427 1.213-0.091 1.304-0.028 0.051 0.036 0.085 0.091 0.092 0.153 0.013 0.115-0.053 0.186-0.172 0.315-0.198 0.215-0.611 0.661-0.809 1.419-0.177 0.679-0.14 1.468-0.108 2.165 0.021 0.44 0.040 0.855 0 1.183-0.129 1.073-0.398 3.305-2.044 5.14-0.787 0.878-1.774 1.644-2.796 2.182-0.018 0.014-0.038 0.024-0.059 0.031-0.252 0.13-0.506 0.246-0.759 0.347-0.868 0.344-1.727 0.516-2.571 0.516zM8.286 23.824c1.497 0.281 2.954-0.055 4.225-0.698 0.088-0.179 0.343-0.78 0.324-1.687-0.022-1.070-0.207-1.408-0.209-1.411-0.054-0.095-0.023-0.217 0.070-0.273s0.213-0.029 0.271 0.063c0.025 0.040 0.244 0.421 0.268 1.612 0.012 0.591-0.080 1.063-0.181 1.396 0.862-0.516 1.619-1.163 2.217-1.831 0.311-0.346 0.57-0.709 0.786-1.075-0.073-0.179-0.238-0.698-0.149-1.568 0.104-1.014 0.143-1.567 0.143-1.572 0.008-0.111 0.105-0.193 0.214-0.186 0.11 0.008 0.194 0.103 0.186 0.214-0 0.006-0.039 0.564-0.144 1.586-0.046 0.447-0.018 0.785 0.024 1.019 0.641-1.311 0.796-2.605 0.885-3.337 0.035-0.295 0.017-0.694-0.003-1.116-0.034-0.725-0.073-1.547 0.12-2.285 0.206-0.789 0.613-1.273 0.847-1.53-0.187-0.049-0.45-0.074-0.602 0.067-0.201 0.186-0.353 0.239-0.529 0.299-0.167 0.057-0.374 0.128-0.734 0.351-0.333 0.206-0.341 0.476-0.326 0.9 0.010 0.28 0.021 0.598-0.143 0.879-0.286 0.491-0.634 0.378-0.864 0.304-0.125-0.040-0.233-0.075-0.346-0.049-0.011 0.087 0.063 0.33 0.118 0.51 0.126 0.415 0.299 0.983 0.206 1.557-0.052 0.32-0.148 0.516-0.302 0.617-0.179 0.117-0.37 0.068-0.524 0.029-0.202-0.052-0.241-0.047-0.299 0.037-0.222 0.321-0.284 0.614-0.369 1.020-0.036 0.171-0.077 0.365-0.136 0.583-0.091 0.341-0.266 0.579-0.52 0.708-0.386 0.196-0.941 0.142-1.748-0.17-0.68-0.263-1.299-0.324-1.698-0.328-0.002 0-0.004 0-0.006 0-0.174 0-0.331 0.081-0.504 0.209-1.157 1.11-2.43 1.736-3.685 1.793-0.243 0.011-0.498 0.002-0.757-0.022-0.282 0.071-0.452 0.289-0.521 0.498-0.086 0.26-0.058 0.624 0.281 0.868 0.861 0.62 1.785 1.155 2.748 1.591 0.291 0.132 0.582 0.237 0.872 0.318 0.128-0.097 0.72-0.567 1.266-1.378-0.042-0.096-0.289-0.675-0.319-1.188-0.015-0.256-0.023-0.585 0.019-0.699l0.375 0.141c0 0 0.002-0.005 0.005-0.017-0.001 0.005-0.025 0.118 0 0.551 0.016 0.269 0.106 0.572 0.182 0.785 0.609-1.057 0.699-1.434 0.699-1.437 0.024-0.107 0.13-0.176 0.238-0.153s0.176 0.127 0.155 0.235c-0.009 0.044-0.106 0.46-0.794 1.642-0.467 0.802-1.009 1.347-1.334 1.632zM0.633 19.943c0.102 0.229 0.375 0.784 0.849 1.337s1.026 0.956 1.262 1.116l0.75-0.604c-0.275-0.211-0.715-0.554-0.996-0.796-0.744-0.639-1.279-1.375-1.301-1.406-0.009-0.013-0.017-0.026-0.023-0.040-0.023-0.031-0.052-0.071-0.086-0.122l-0.455 0.514zM1.966 19.902c0.211 0.24 0.485 0.526 0.793 0.791 0.188 0.162 0.456 0.375 0.694 0.561-0.009-0.147 0.011-0.299 0.061-0.449 0.059-0.177 0.153-0.33 0.273-0.453-0.69-0.116-1.354-0.302-1.82-0.45zM1.502 19.321c0.274 0.101 1.638 0.582 2.893 0.709 0.078-0.014 0.16-0.021 0.243-0.019 0.387 0.007 0.757-0.020 1.099-0.083 1.256-0.23 2.075-0.918 2.564-1.33 0.086-0.073 0.164-0.137 0.232-0.191 0.022-0.017 0.044-0.034 0.066-0.051 0.346-0.334 0.682-0.715 1.003-1.139 1.271-1.678 1.192-2.48 1.154-2.865l-0.005-0.056c-0.009-0.1-0.065-0.28-0.124-0.471-0.154-0.497-0.365-1.177-0.165-1.679 0.184-0.463 0.652-0.505 1.104-0.545 0.324-0.029 0.66-0.059 0.922-0.232 0.56-0.372 0.278-1.33 0.023-1.837-0.101-0.2-0.225-0.351-0.335-0.484-0.188-0.228-0.382-0.463-0.293-0.819 0.057-0.227 0.214-0.374 0.366-0.515 0.193-0.18 0.359-0.335 0.351-0.657-0.008-0.319-0.098-0.352-0.261-0.414-0.11-0.041-0.246-0.092-0.347-0.227-0.18-0.239-0.077-0.441-0.002-0.589 0.054-0.106 0.104-0.206 0.102-0.356-0.003-0.188-0.293-0.492-0.555-0.704-0.204 0.239-0.679 0.662-1.738 1.136-0.605 0.271-1.061 0.326-1.545 0.384-0.756 0.091-1.614 0.195-3.352 1.198-2.042 1.179-2.908 2.677-3.425 3.573-0.067 0.115-0.127 0.219-0.182 0.309-0.044 0.072-0.126 0.24-0.191 0.375-0.047 0.098-0.091 0.188-0.121 0.244-0.448 0.837-0.639 1.944-0.567 3.293 0.3-1.011 0.912-2.514 2.125-3.911 2.032-2.342 5.981-3.62 6.148-3.673 0.106-0.033 0.218 0.025 0.252 0.13s-0.025 0.218-0.13 0.252c-0.038 0.012-3.627 1.174-5.663 3.227 0.395 0.13 1.311 0.391 1.948 0.245 0.262-0.060 0.489-0.117 0.688-0.167 0.494-0.124 0.852-0.214 1.272-0.231 0.003-0 0.005-0 0.008-0 0.107 0 0.196 0.085 0.2 0.193 0.004 0.111-0.082 0.204-0.192 0.208-0.361 0.014-0.686 0.092-1.123 0.202l0.39 0.375c0.080 0.077 0.082 0.204 0.006 0.284s-0.203 0.083-0.283 0.006l-0.573-0.55c-0.096 0.023-0.197 0.047-0.304 0.072-0.872 0.199-2.099-0.228-2.336-0.315-0.002 0.002-0.003 0.004-0.005 0.006-0.651 0.75-1.122 1.539-1.462 2.259 0.534-0.291 1.406-0.666 1.961-0.389 0.369 0.184 0.649 0.515 0.921 0.836 0.297 0.35 0.577 0.681 0.944 0.806 0.105 0.036 0.161 0.149 0.126 0.254s-0.149 0.161-0.254 0.126c-0.472-0.16-0.802-0.55-1.121-0.926-0.116-0.137-0.229-0.27-0.345-0.389-0.084 0.261-0.224 0.754-0.229 1.156-0.006 0.573 0.279 1.385 0.282 1.393 0.037 0.104-0.017 0.219-0.122 0.256s-0.219-0.017-0.256-0.122c-0.013-0.036-0.313-0.887-0.306-1.532 0.006-0.566 0.236-1.25 0.3-1.43-0.039-0.025-0.079-0.048-0.12-0.069-0.5-0.25-1.648 0.391-2.011 0.635-0.014 0.009-0.028 0.017-0.043 0.022-0.452 1.142-0.562 1.988-0.564 2.003-0 0.002-0 0.004-0.001 0.006 0.276 1.816 0.829 2.628 0.959 2.798zM9.436 18.055c0.433 0.011 1.073 0.083 1.773 0.354 0.674 0.261 1.152 0.324 1.422 0.187 0.15-0.076 0.253-0.225 0.314-0.454 0.056-0.208 0.094-0.388 0.13-0.562 0.088-0.417 0.164-0.778 0.432-1.165 0.226-0.327 0.54-0.246 0.728-0.197 0.081 0.021 0.173 0.045 0.205 0.024 0.013-0.008 0.080-0.065 0.126-0.346 0.079-0.481-0.072-0.977-0.194-1.375-0.113-0.369-0.194-0.636-0.083-0.836 0.034-0.061 0.103-0.142 0.235-0.177 0.23-0.061 0.425 0.002 0.582 0.053 0.219 0.071 0.271 0.088 0.395-0.124 0.105-0.181 0.097-0.415 0.088-0.662-0.013-0.381-0.030-0.85 0.415-1.186-0.146-0.264-0.675-1.164-1.479-1.869-0.845-0.742-1.968-1.309-2.24-1.441-0.007 0.015-0.012 0.030-0.016 0.046-0.037 0.146 0.022 0.233 0.214 0.465 0.117 0.142 0.263 0.318 0.384 0.559 0.391 0.777 0.584 1.858-0.159 2.352-0.346 0.23-0.751 0.266-1.107 0.298-0.431 0.038-0.679 0.071-0.767 0.294-0.147 0.37 0.040 0.973 0.176 1.413 0.069 0.221 0.128 0.412 0.14 0.554l0.005 0.053c0.043 0.437 0.132 1.344-1.234 3.147-0.159 0.209-0.321 0.408-0.486 0.597z"></path>
<path fill="#dfe2eb" style="fill: var(--color1, #dfe2eb)" d="M41.239 9.318c0 0.896-0.194 1.774-0.581 2.63-0.447 0.987-0.996 1.934-1.631 2.817-0.028 0.039-0.057 0.075-0.089 0.109l0.764 0.949c0.053 0.066 0.059 0.158 0.015 0.23-0.020 0.033-0.503 0.813-1.274 1.474-0.774 0.663-1.534 0.954-1.566 0.966-0.069 0.026-0.148 0.012-0.204-0.037l-0.66-0.583c-0.016-0.014-0.029-0.031-0.040-0.048-0.581 0.298-1.661 0.698-3.44 0.843-1.575 0.128-2.867-0.072-3.839-0.592-0.052-0.028-0.137-0.069-0.229-0.114-0.158-0.076-0.32-0.155-0.409-0.21-0.088-0.054-0.189-0.112-0.301-0.177-0.869-0.502-2.487-1.436-3.719-3.571-1.045-1.809-1.153-2.71-1.249-3.504-0.057-0.473-0.106-0.88-0.352-1.43-0.625-1.397-1.137-1.676-1.142-1.679-0.051-0.027-0.090-0.075-0.104-0.131s-0.005-0.116 0.028-0.163c0.101-0.146 0.632-0.877 1.146-0.885 0.249-0.004 0.419 0.082 0.543 0.145 0.128 0.065 0.13 0.062 0.167 0.035 0.039-0.029 0.060-0.083 0.092-0.167 0.076-0.202 0.191-0.507 0.78-0.521 0.469-0.011 0.732 0.236 0.921 0.438 0.199-0.398 0.741-1.419 1.452-2.229 0.459-0.523 0.996-0.934 1.364-1.186 0.282-0.192 0.467-0.308 0.595-0.374-0.14-0.258-0.2-0.433-0.247-0.57-0.055-0.16-0.085-0.248-0.214-0.387-0.427-0.461-0.091-1.213-0.028-1.304 0.036-0.051 0.091-0.085 0.153-0.092 0.115-0.013 0.186 0.053 0.315 0.172 0.215 0.198 0.661 0.611 1.419 0.809 0.679 0.177 1.468 0.14 2.165 0.108 0.44-0.021 0.855-0.040 1.183-0 1.073 0.129 3.305 0.399 5.14 2.044 0.878 0.787 1.644 1.774 2.182 2.796 0.014 0.018 0.024 0.038 0.031 0.059 0.13 0.252 0.246 0.506 0.347 0.759 0.344 0.868 0.516 1.727 0.516 2.571zM40.725 10.418c0.281-1.497-0.055-2.954-0.698-4.225-0.179-0.088-0.78-0.343-1.687-0.324-1.070 0.022-1.408 0.207-1.411 0.209-0.095 0.054-0.217 0.023-0.273-0.070s-0.029-0.213 0.063-0.271c0.040-0.025 0.421-0.244 1.612-0.268 0.591-0.012 1.063 0.080 1.396 0.181-0.516-0.862-1.163-1.619-1.831-2.217-0.346-0.311-0.709-0.57-1.075-0.786-0.179 0.073-0.698 0.238-1.568 0.149-1.014-0.104-1.567-0.143-1.572-0.143-0.111-0.008-0.193-0.105-0.186-0.214 0.007-0.111 0.103-0.194 0.214-0.186 0.006 0 0.564 0.039 1.586 0.144 0.446 0.046 0.785 0.018 1.019-0.024-1.312-0.64-2.605-0.796-3.337-0.885-0.295-0.035-0.694-0.017-1.116 0.003-0.725 0.034-1.547 0.073-2.285-0.12-0.789-0.206-1.273-0.613-1.53-0.847-0.049 0.187-0.074 0.45 0.067 0.602 0.186 0.201 0.238 0.353 0.299 0.529 0.057 0.167 0.128 0.374 0.351 0.734 0.206 0.333 0.476 0.341 0.9 0.326 0.28-0.010 0.598-0.021 0.879 0.143 0.491 0.286 0.378 0.634 0.304 0.864-0.040 0.125-0.076 0.233-0.049 0.346 0.087 0.011 0.329-0.063 0.51-0.118 0.415-0.126 0.983-0.299 1.556-0.206 0.32 0.052 0.516 0.148 0.617 0.302 0.117 0.179 0.068 0.37 0.029 0.524-0.052 0.202-0.047 0.241 0.037 0.299 0.321 0.222 0.614 0.284 1.020 0.369 0.171 0.036 0.365 0.077 0.583 0.136 0.341 0.091 0.579 0.266 0.708 0.52 0.196 0.386 0.142 0.941-0.17 1.748-0.263 0.68-0.324 1.299-0.328 1.698 0 0.002 0 0.004 0 0.006 0 0.174 0.081 0.331 0.209 0.504 1.11 1.157 1.736 2.43 1.793 3.685 0.011 0.242 0.002 0.498-0.022 0.757 0.071 0.282 0.289 0.452 0.498 0.521 0.26 0.086 0.624 0.058 0.868-0.281 0.62-0.861 1.155-1.785 1.591-2.748 0.132-0.291 0.237-0.582 0.318-0.872-0.097-0.128-0.567-0.72-1.378-1.266-0.096 0.042-0.675 0.289-1.188 0.319-0.256 0.015-0.585 0.023-0.699-0.019l0.141-0.375c0 0-0.005-0.002-0.017-0.005 0.005 0.001 0.118 0.025 0.551-0 0.269-0.016 0.572-0.106 0.785-0.182-1.057-0.609-1.433-0.699-1.437-0.699-0.107-0.024-0.176-0.13-0.153-0.238s0.127-0.176 0.235-0.155c0.044 0.009 0.46 0.106 1.642 0.794 0.802 0.467 1.347 1.009 1.632 1.334zM36.845 18.072c0.229-0.102 0.784-0.375 1.337-0.849s0.956-1.026 1.116-1.262l-0.604-0.75c-0.211 0.275-0.554 0.715-0.796 0.996-0.639 0.743-1.375 1.279-1.406 1.301-0.013 0.009-0.026 0.017-0.040 0.023-0.031 0.023-0.071 0.052-0.122 0.086l0.514 0.455zM36.804 16.739c0.24-0.211 0.526-0.485 0.791-0.793 0.162-0.188 0.375-0.456 0.561-0.694-0.147 0.009-0.299-0.011-0.448-0.061-0.176-0.059-0.33-0.153-0.453-0.273-0.116 0.69-0.302 1.354-0.45 1.82zM36.222 17.202c0.1-0.274 0.582-1.638 0.709-2.893-0.014-0.078-0.021-0.16-0.019-0.243 0.007-0.387-0.020-0.757-0.083-1.099-0.23-1.256-0.918-2.075-1.33-2.564-0.073-0.086-0.137-0.164-0.192-0.232-0.017-0.022-0.034-0.044-0.051-0.066-0.334-0.346-0.715-0.682-1.139-1.003-1.678-1.271-2.48-1.192-2.865-1.154l-0.056 0.005c-0.1 0.009-0.28 0.065-0.471 0.124-0.497 0.154-1.177 0.365-1.679 0.165-0.464-0.184-0.505-0.652-0.546-1.104-0.029-0.324-0.059-0.66-0.232-0.922-0.372-0.56-1.33-0.278-1.837-0.023-0.2 0.101-0.351 0.225-0.484 0.335-0.228 0.188-0.463 0.382-0.819 0.293-0.227-0.057-0.374-0.214-0.515-0.366-0.18-0.193-0.335-0.359-0.657-0.351-0.319 0.008-0.352 0.098-0.414 0.261-0.041 0.109-0.092 0.246-0.227 0.346-0.239 0.179-0.441 0.077-0.589 0.002-0.106-0.054-0.206-0.104-0.355-0.102-0.188 0.003-0.492 0.293-0.704 0.555 0.239 0.204 0.662 0.679 1.136 1.738 0.27 0.605 0.326 1.061 0.384 1.545 0.091 0.756 0.195 1.614 1.198 3.352 1.179 2.042 2.677 2.908 3.572 3.425 0.115 0.067 0.219 0.127 0.309 0.182 0.072 0.044 0.24 0.125 0.375 0.191 0.098 0.047 0.188 0.091 0.244 0.121 0.837 0.448 1.944 0.639 3.293 0.567-1.011-0.3-2.514-0.912-3.911-2.125-2.342-2.032-3.62-5.981-3.673-6.148-0.033-0.106 0.025-0.218 0.13-0.252s0.218 0.025 0.252 0.13c0.012 0.038 1.174 3.627 3.227 5.663 0.13-0.395 0.391-1.311 0.245-1.948-0.060-0.262-0.117-0.489-0.167-0.688-0.124-0.494-0.214-0.852-0.231-1.272-0-0.003-0-0.005-0-0.008 0-0.107 0.085-0.196 0.193-0.2 0.111-0.004 0.204 0.082 0.208 0.192 0.014 0.361 0.092 0.687 0.202 1.123l0.375-0.39c0.077-0.080 0.204-0.082 0.284-0.006s0.082 0.203 0.006 0.283l-0.55 0.573c0.023 0.096 0.047 0.197 0.072 0.304 0.199 0.872-0.228 2.099-0.315 2.336 0.002 0.002 0.004 0.003 0.005 0.005 0.75 0.651 1.539 1.122 2.259 1.462-0.291-0.534-0.666-1.406-0.389-1.961 0.184-0.369 0.515-0.649 0.836-0.921 0.35-0.297 0.681-0.577 0.806-0.944 0.035-0.105 0.149-0.161 0.254-0.126s0.161 0.149 0.126 0.254c-0.16 0.472-0.549 0.802-0.926 1.121-0.137 0.116-0.27 0.229-0.389 0.345 0.261 0.084 0.754 0.224 1.156 0.229 0.573 0.006 1.385-0.279 1.393-0.282 0.104-0.037 0.219 0.017 0.256 0.121s-0.017 0.219-0.122 0.256c-0.036 0.013-0.887 0.313-1.532 0.306-0.566-0.006-1.25-0.236-1.43-0.3-0.025 0.039-0.048 0.079-0.069 0.12-0.249 0.5 0.391 1.648 0.635 2.011 0.009 0.014 0.017 0.028 0.022 0.043 1.142 0.453 1.988 0.562 2.003 0.564 0.002 0 0.004 0 0.006 0.001 1.816-0.276 2.628-0.829 2.798-0.959zM34.956 9.268c0.011-0.433 0.083-1.073 0.354-1.773 0.261-0.674 0.324-1.152 0.187-1.422-0.076-0.15-0.225-0.253-0.454-0.314-0.208-0.056-0.388-0.094-0.562-0.13-0.417-0.088-0.778-0.164-1.165-0.432-0.327-0.226-0.246-0.54-0.197-0.728 0.021-0.081 0.045-0.173 0.024-0.205-0.009-0.013-0.065-0.080-0.346-0.126-0.481-0.079-0.977 0.072-1.375 0.194-0.369 0.112-0.636 0.194-0.836 0.083-0.061-0.034-0.142-0.103-0.177-0.235-0.061-0.231 0.002-0.425 0.053-0.582 0.071-0.219 0.088-0.271-0.124-0.395-0.18-0.105-0.415-0.097-0.663-0.088-0.381 0.013-0.85 0.030-1.186-0.415-0.264 0.146-1.164 0.675-1.869 1.479-0.742 0.845-1.309 1.968-1.441 2.24 0.015 0.007 0.030 0.012 0.046 0.016 0.146 0.037 0.233-0.022 0.465-0.214 0.142-0.117 0.319-0.263 0.559-0.384 0.777-0.391 1.858-0.584 2.352 0.159 0.23 0.346 0.266 0.751 0.298 1.107 0.038 0.431 0.071 0.679 0.294 0.767 0.37 0.147 0.973-0.040 1.413-0.176 0.221-0.069 0.412-0.128 0.554-0.14l0.052-0.005c0.436-0.043 1.344-0.132 3.148 1.234 0.209 0.159 0.408 0.321 0.597 0.486z"></path>
<path fill="#f5f6fb" style="fill: var(--color2, #f5f6fb)" d="M16.225 30.423c0 0.871-3.38 1.577-7.549 1.577s-7.549-0.706-7.549-1.577c0-0.871 3.38-1.577 7.549-1.577s7.549 0.706 7.549 1.577z"></path>
<path fill="#f5f6fb" style="fill: var(--color2, #f5f6fb)" d="M41.239 26.817c0 0.871-3.38 1.577-7.549 1.577s-7.549-0.706-7.549-1.577c0-0.871 3.38-1.577 7.549-1.577s7.549 0.706 7.549 1.577z"></path>
</symbol>
</defs>
</svg>

